<svg xmlns="http://www.w3.org/2000/svg" version="1.1" xmlns:xlink="http://www.w3.org/1999/xlink" xmlns:svgjs="http://svgjs.dev/svgjs" viewBox="0 0 8.41086959465479 7.6539672056866825"><g transform="matrix(1,0,0,1,0.6684761791633322,5.920491026523351)"><g><path d=" M 0.933 0.5369999999999999 L 1.0065 0.5369999999999999 L 1.0065 0.9299999999999999 Q 0.9375 0.9959999999999999 0.83925 1.0305 Q 0.741 1.065 0.6315000000000001 1.065 Q 0.47550000000000003 1.065 0.35025 0.9959999999999999 Q 0.225 0.9269999999999998 0.15375 0.8054999999999999 Q 0.0825 0.6839999999999999 0.0825 0.5324999999999999 Q 0.0825 0.3809999999999999 0.15375 0.25949999999999984 Q 0.225 0.1379999999999999 0.35025 0.06899999999999984 Q 0.47550000000000003 -2.220446049250313e-16 0.633 -2.220446049250313e-16 Q 0.7485 -2.220446049250313e-16 0.8452500000000001 0.03674999999999984 Q 0.9420000000000001 0.0734999999999999 1.0110000000000001 0.1439999999999999 L 0.963 0.19499999999999984 Q 0.897 0.1289999999999999 0.81525 0.0997499999999999 Q 0.7335 0.0704999999999999 0.6345000000000001 0.0704999999999999 Q 0.4995 0.0704999999999999 0.39075 0.13049999999999984 Q 0.28200000000000003 0.1904999999999999 0.2205 0.2962499999999999 Q 0.159 0.4019999999999999 0.159 0.5324999999999999 Q 0.159 0.6614999999999999 0.22125 0.7672499999999999 Q 0.28350000000000003 0.8729999999999999 0.3915 0.9337499999999999 Q 0.4995 0.9944999999999999 0.6345000000000001 0.9944999999999999 Q 0.8145 0.9944999999999999 0.933 0.8984999999999999 L 0.933 0.5369999999999999 M 1.524015380859375 0.9952499999999999 Q 1.3995153808593752 0.9254999999999999 1.3282653808593752 0.8039999999999998 Q 1.2570153808593751 0.6824999999999999 1.2570153808593751 0.5324999999999999 Q 1.2570153808593751 0.38249999999999984 1.3282653808593752 0.2609999999999999 Q 1.3995153808593752 0.13949999999999985 1.524015380859375 0.06974999999999987 Q 1.648515380859375 -2.220446049250313e-16 1.8030153808593752 -2.220446049250313e-16 Q 1.957515380859375 -2.220446049250313e-16 2.0820153808593753 0.06899999999999984 Q 2.206515380859375 0.1379999999999999 2.277765380859375 0.25949999999999984 Q 2.3490153808593752 0.3809999999999999 2.3490153808593752 0.5324999999999999 Q 2.3490153808593752 0.6839999999999999 2.277765380859375 0.8054999999999999 Q 2.206515380859375 0.9269999999999998 2.0820153808593753 0.9959999999999999 Q 1.957515380859375 1.065 1.8030153808593752 1.065 Q 1.648515380859375 1.065 1.524015380859375 0.9952499999999999 M 2.041515380859375 0.9344999999999999 Q 2.148015380859375 0.8744999999999998 2.209515380859375 0.7687499999999998 Q 2.2710153808593754 0.6629999999999998 2.2710153808593754 0.5324999999999999 Q 2.2710153808593754 0.4019999999999999 2.209515380859375 0.2962499999999999 Q 2.148015380859375 0.1904999999999999 2.041515380859375 0.13049999999999984 Q 1.935015380859375 0.0704999999999999 1.8030153808593752 0.0704999999999999 Q 1.671015380859375 0.0704999999999999 1.5637653808593752 0.13049999999999984 Q 1.4565153808593752 0.1904999999999999 1.395015380859375 0.2962499999999999 Q 1.3335153808593752 0.4019999999999999 1.3335153808593752 0.5324999999999999 Q 1.3335153808593752 0.6629999999999998 1.395015380859375 0.7687499999999998 Q 1.4565153808593752 0.8744999999999998 1.5637653808593752 0.9344999999999999 Q 1.671015380859375 0.9944999999999999 1.8030153808593752 0.9944999999999999 Q 1.935015380859375 0.9944999999999999 2.041515380859375 0.9344999999999999 M 2.55299267578125 0.6209999999999999 L 2.93849267578125 0.6209999999999999 L 2.93849267578125 0.6884999999999999 L 2.55299267578125 0.6884999999999999 L 2.55299267578125 0.6209999999999999 M 3.5414648437500005 0.5399999999999999 L 3.3059648437500004 0.7814999999999999 L 3.3059648437500004 1.0574999999999999 L 3.22946484375 1.0574999999999999 L 3.22946484375 0.00749999999999984 L 3.3059648437500004 0.00749999999999984 L 3.3059648437500004 0.6824999999999999 L 3.9614648437500004 0.00749999999999984 L 4.054464843750001 0.00749999999999984 L 3.59246484375 0.4844999999999998 L 4.08596484375 1.0574999999999999 L 3.9929648437500003 1.0574999999999999 L 3.5414648437500005 0.5399999999999999 M 4.9094677734375 0.7619999999999999 L 4.3004677734375 0.7619999999999999 L 4.1669677734375 1.0574999999999999 L 4.084467773437501 1.0574999999999999 L 4.5674677734375 0.00749999999999984 L 4.643967773437501 0.00749999999999984 L 5.1269677734375 1.0574999999999999 L 5.044467773437501 1.0574999999999999 L 4.9094677734375 0.7619999999999999 M 4.880967773437501 0.6974999999999999 L 4.604967773437501 0.09149999999999991 L 4.3304677734375 0.6974999999999999 L 4.880967773437501 0.6974999999999999 M 6.061493408203126 1.0574999999999999 L 5.810993408203126 0.7064999999999999 Q 5.755493408203126 0.7139999999999999 5.708993408203126 0.7139999999999999 L 5.408993408203126 0.7139999999999999 L 5.408993408203126 1.0574999999999999 L 5.332493408203126 1.0574999999999999 L 5.332493408203126 0.00749999999999984 L 5.708993408203126 0.00749999999999984 Q 5.906993408203126 0.00749999999999984 6.019493408203126 0.10124999999999984 Q 6.131993408203126 0.19499999999999984 6.131993408203126 0.3614999999999998 Q 6.131993408203126 0.4859999999999999 6.068243408203126 0.5707499999999999 Q 6.0044934082031265 0.6554999999999999 5.885993408203126 0.69 L 6.148493408203126 1.0574999999999999 L 6.061493408203126 1.0574999999999999 M 5.708993408203126 0.6464999999999999 Q 5.876993408203126 0.6464999999999999 5.965493408203126 0.5722499999999999 Q 6.053993408203126 0.4979999999999999 6.053993408203126 0.3614999999999998 Q 6.053993408203126 0.22499999999999987 5.965493408203126 0.15074999999999983 Q 5.876993408203126 0.0764999999999999 5.708993408203126 0.0764999999999999 L 5.408993408203126 0.0764999999999999 L 5.408993408203126 0.6464999999999999 L 5.708993408203126 0.6464999999999999 M 6.613434814453127 0.0764999999999999 L 6.235434814453127 0.0764999999999999 L 6.235434814453127 0.00749999999999984 L 7.067934814453126 0.00749999999999984 L 7.067934814453126 0.0764999999999999 L 6.689934814453126 0.0764999999999999 L 6.689934814453126 1.0574999999999999 L 6.613434814453127 1.0574999999999999 L 6.613434814453127 0.0764999999999999" fill="#173054" fill-rule="nonzero"></path></g><g></g><g clip-path="url(#SvgjsClipPath1001)"><g clip-path="url(#a6eb5f03b-e24e-4e6b-960b-da3fdb8cc0a73afed055-db34-4dce-8c9c-4cf6a6532fce)"><path d=" M 4.389942983979592 -2.3023348634243987 L 3.6350858864211517 -4.142218483398229 C 3.624329148688203 -4.16849172837403 3.6035700353393416 -4.189411737966394 3.5773806218498168 -4.200371000226626 C 3.551191208360292 -4.211330262486859 3.521719566696609 -4.211429891915127 3.4954566566508083 -4.200647945702126 L 3.029524657617155 -4.00946330801658 L 2.5470519652107075 -5.185356236882516 C 2.536295227477759 -5.211629481858317 2.5155361141288974 -5.232549491450681 2.4893467006393726 -5.2435087537109135 C 2.4631572871498477 -5.254468015971145 2.4336856454861646 -5.254567645399415 2.407422735440364 -5.243785699186414 L 1.1325004605373068 -4.720713123046743 C 1.106189943369132 -4.710008116494329 1.085243091106603 -4.689240498649412 1.0743123873701006 -4.6630229435618595 C 1.0633816836335976 -4.636805388474307 1.0633721170463255 -4.607308533063244 1.0742858124330554 -4.5810838932764 L 1.5949954323766122 -3.3117467875641564 L 1.5969287601734328 -3.305946804173696 L 2.3520006719315196 -1.4660631841998657 C 2.3627574096644683 -1.439789939224065 2.3835165230133293 -1.4188699296317 2.4097059365028546 -1.4079106673714685 C 2.43589534999238 -1.3969514051112366 2.4653669916560625 -1.396851775682967 2.491629901701863 -1.407633721895968 L 4.331513521675694 -2.1627056336540553 C 4.357786766651495 -2.1734623713870036 4.378706776243859 -2.194221484735865 4.389666038504091 -2.22041089822539 C 4.4006253007643235 -2.2466003117149156 4.400724930192593 -2.276071953378598 4.389942983979592 -2.3023348634243987 M 2.0448163664367653 -4.638868912981358 L 1.8042244628324815 -4.540269195343531 L 1.7253876515621491 -4.732527904027311 L 1.9657647409667862 -4.831342435864785 Z M 2.831465965542914 -3.928478354749781 L 1.7546023827140975 -3.4866055460765555 L 1.3129443882405194 -4.563469128905372 L 1.6237805351292678 -4.690853949295855 L 1.7234543237653284 -4.447684275295811 C 1.735038888017601 -4.419643493811906 1.7671442812692377 -4.406282267279039 1.7952022664473202 -4.417825101544922 L 2.1371864722848377 -4.558098773914206 C 2.150691996849326 -4.563621299571098 2.161449164972522 -4.57428472423524 2.167089685940911 -4.587741395688397 C 2.1727302069093 -4.601198067141553 2.1727916400321003 -4.61634473402143 2.1672604602353736 -4.629846716596197 L 2.067586671599313 -4.873016390596241 L 2.3895931568696893 -5.0051271233789505 Z M 2.844569631721362 -3.7022790025218244 L 2.985702560889232 -3.3581466546878405 L 2.5934518323343907 -3.197250819152475 L 2.4523189031665207 -3.54138316698646 Z M 4.151284408172128 -2.320164441995073 L 2.5094594802725383 -1.6465071119030785 L 1.8358021501805435 -3.2883320398026683 L 2.35071178673364 -3.4997092122550035 L 2.512681693267238 -3.1048807133044023 C 2.524272730660579 -3.0768459053837276 2.55631288436117 -3.063415900838569 2.58442963594923 -3.0748067253538665 L 3.078287480936951 -3.2773765156206878 C 3.1063222888576263 -3.2889675530140288 3.119752293402784 -3.32100770671462 3.108361468887487 -3.349124458302679 L 2.946176748154242 -3.743952957253281 L 3.477627078080133 -3.961989369894663 Z M 1.2790037446963438 -3.652871736603088 C 1.1355482864974797 -4.015860875721237 0.7842750328554824 -4.253822926914153 0.3939692421520138 -4.252418167816977 L 0.13168110438341574 -4.252418167816977 C 0.05895563859157858 -4.252418167816977 0 -4.193462529225399 0 -4.120737063433561 C 0 -4.0480115976417235 0.05895563859157858 -3.9890559590501447 0.13168110438341574 -3.9890559590501447 L 0.3939692421520146 -3.9890559590501447 C 0.6764039814687196 -3.990051798973778 0.930574529496849 -3.8178194920241566 1.0343303712987735 -3.5551312757638476 L 1.3885589865161514 -2.6677338170234046 L 0.8012569646821229 -2.6677338170234046 L 0.8012569646821229 -2.519512019267194 L 1.4478477056186354 -2.519512019267194 L 1.5253956316910877 -2.3253199827865934 L 1.0051156401468238 -2.3253199827865934 L 1.0051156401468238 -2.1770981850303825 L 1.5844695365939254 -2.1770981850303825 L 1.6620174626663777 -1.982906148549782 L 1.2089743156115254 -1.982906148549782 L 1.2089743156115254 -1.8346843507935717 L 1.7210913675692154 -1.8346843507935717 L 1.9679128829632526 -1.2162342700107747 C 1.7749548708347946 -1.1458455551792097 1.644943794286468 -0.9642862180245269 1.6404532064723731 -0.7589396810649545 C 1.635962618658278 -0.5535931441053821 1.7579123989082637 -0.3665238413582914 1.9476088477376796 -0.2877671088098026 C 2.137305296567096 -0.2090103762613138 2.3558898392307244 -0.2546992221849589 2.4981590433583767 -0.40284387844055836 C 2.6404282474860294 -0.5509885346961569 2.6772388236980063 -0.771242148542207 2.5908740619386306 -0.9575979736361688 L 4.265135933984869 -1.6628329910762263 C 4.329340502918214 -1.692822349791732 4.358374113281788 -1.768184986387436 4.3308854928948515 -1.8334993344076582 C 4.303396872507913 -1.898813682427881 4.22921114290256 -1.9307347577280858 4.162884374953048 -1.9057878508766235 L 2.4087116206382437 -1.1668270040920383 C 2.3584552271309156 -1.1993345180948491 2.302694896763487 -1.222410268390508 2.244163943708886 -1.2349231053800356 Z M 1.9808017349420532 -0.748154128980655 C 1.9808017334842034 -0.8046389814742847 2.0109360425975016 -0.8568331379411678 2.0598533593302704 -0.885075564440168 C 2.1087706760630396 -0.9133179909391682 2.169039296049109 -0.9133179908756519 2.2179566127223493 -0.8850755642735457 C 2.2668739293955906 -0.8568331376714395 2.2970082383988752 -0.804638981141041 2.297008236821969 -0.7481541289159921 C 2.2970082345683287 -0.6608361165150614 2.2262229987828084 -0.5900508824818793 2.138904986048633 -0.590050882389856 C 2.051586973314458 -0.5900508822978328 1.9808017373797395 -0.6608361161818177 1.9808017349420532 -0.7481541289159921 M 0.47216161082340696 -2.6677338170234046 L 0.25197705618555855 -2.6677338170234046 L 0.25197705618555855 -2.519512019267194 L 0.47216161082340696 -2.519512019267194 Z M 0.6760202862881083 -2.3253199827865934 L 0.4556209174506131 -2.3253199827865934 L 0.4556209174506131 -2.177098185030383 L 0.6760202862881083 -2.177098185030383 Z M 0.8798789617528099 -1.9829061485497825 L 0.6594795929153143 -1.9829061485497825 L 0.6594795929153143 -1.8346843507935717 L 0.8798789617528099 -1.8346843507935717 Z" fill="#173054" transform="matrix(1,0,0,1,0,0)" fill-rule="nonzero"></path></g></g></g><defs><clipPath id="SvgjsClipPath1001"><path d=" M 0 -5.252014847360019 h 4.3980095114901205 v 5.002014847360019 h -4.3980095114901205 Z"></path></clipPath><clipPath id="a6eb5f03b-e24e-4e6b-960b-da3fdb8cc0a73afed055-db34-4dce-8c9c-4cf6a6532fce"><path d=" M 0 -0.25 L 4.398105923566165 -0.25 L 4.398105923566165 -5.251948638772988 L 0 -5.251948638772988 Z"></path></clipPath></defs></svg>